<svg width="773" height="773" viewBox="0 0 773 773" fill="none" xmlns="http://www.w3.org/2000/svg">
<path d="M167.203 166.797C167.203 166.797 301.603 200.415 387.321 200.371C473.039 200.328 605.609 166.797 605.609 166.797C605.609 166.797 572.95 300.063 572.95 386C572.95 471.937 605.609 605.203 605.609 605.203C605.609 605.203 473.039 571.672 387.321 571.629C301.603 571.585 167.203 605.203 167.203 605.203C167.203 605.203 201.692 471.981 201.692 386C201.692 300.019 167.203 166.797 167.203 166.797ZM263.273 386L246.14 526.885L387.025 509.752L527.91 526.885L510.777 386L527.91 245.115L387.025 262.248L246.14 245.115L263.273 386Z" fill="#2F55E6"/>
<path fill-rule="evenodd" clip-rule="evenodd" d="M246.14 526.885L263.273 386L246.14 245.115L387.025 262.248L527.91 245.115L510.777 386L527.91 526.885L387.025 509.752L246.14 526.885Z" fill="#2F55E6"/>
<path fill-rule="evenodd" clip-rule="evenodd" d="M156.131 387.508L285.888 285.888L387.508 156.131V387.508H156.131Z" fill="url(#paint0_linear_92_2)"/>
<path fill-rule="evenodd" clip-rule="evenodd" d="M386.492 156.131L488.112 285.888L617.869 387.508H386.492V156.131Z" fill="url(#paint1_linear_92_2)"/>
<path fill-rule="evenodd" clip-rule="evenodd" d="M617.869 386.492L488.112 488.112L386.492 617.869V386.492H617.869Z" fill="url(#paint2_linear_92_2)"/>
<path fill-rule="evenodd" clip-rule="evenodd" d="M387.508 617.869L285.888 488.112L156.131 386.492H387.508V617.869Z" fill="url(#paint3_linear_92_2)"/>
<path fill-rule="evenodd" clip-rule="evenodd" d="M386.261 32C386.261 32 306.478 167.522 237 237C167.522 306.478 32 386.261 32 386.261L159.072 386.761L286.761 286.761L386.761 159.072L386.261 32Z" fill="url(#paint4_linear_92_2)"/>
<path fill-rule="evenodd" clip-rule="evenodd" d="M740 386.261C740 386.261 604.478 306.478 535 237C465.522 167.522 385.739 32 385.739 32L385.239 159.072L485.239 286.761L612.928 386.761L740 386.261Z" fill="url(#paint5_linear_92_2)"/>
<path fill-rule="evenodd" clip-rule="evenodd" d="M385.739 740C385.739 740 465.522 604.478 535 535C604.478 465.522 740 385.739 740 385.739L612.928 385.239L485.239 485.239L385.239 612.928L385.739 740Z" fill="url(#paint6_linear_92_2)"/>
<path fill-rule="evenodd" clip-rule="evenodd" d="M32 385.739C32 385.739 167.522 465.522 237 535C306.478 604.478 386.261 740 386.261 740L386.761 612.928L286.761 485.239L159.072 385.239L32 385.739Z" fill="url(#paint7_linear_92_2)"/>
<path fill-rule="evenodd" clip-rule="evenodd" d="M330.379 331.379L259 387.279H386.279V260L330.379 331.379Z" fill="url(#paint8_linear_92_2)"/>
<path fill-rule="evenodd" clip-rule="evenodd" d="M441.621 331.379L385.721 260V387.279H513L441.621 331.379Z" fill="url(#paint9_linear_92_2)"/>
<path fill-rule="evenodd" clip-rule="evenodd" d="M441.621 442.621L513 386.721H385.721V514L441.621 442.621Z" fill="url(#paint10_linear_92_2)"/>
<path fill-rule="evenodd" clip-rule="evenodd" d="M330.379 442.621L386.279 514V386.721H259L330.379 442.621Z" fill="url(#paint11_linear_92_2)"/>
<g clip-path="url(#paint12_diamond_92_2_clip_path)" data-figma-skip-parse="true"><g transform="matrix(0.00014718 0.0851472 -0.0848528 0.000146673 385.853 386.853)"><rect x="0" y="0" width="1013.15" height="1016.66" fill="url(#paint12_diamond_92_2)" opacity="1" shape-rendering="crispEdges"/><rect x="0" y="0" width="1013.15" height="1016.66" transform="scale(1 -1)" fill="url(#paint12_diamond_92_2)" opacity="1" shape-rendering="crispEdges"/><rect x="0" y="0" width="1013.15" height="1016.66" transform="scale(-1 1)" fill="url(#paint12_diamond_92_2)" opacity="1" shape-rendering="crispEdges"/><rect x="0" y="0" width="1013.15" height="1016.66" transform="scale(-1)" fill="url(#paint12_diamond_92_2)" opacity="1" shape-rendering="crispEdges"/></g></g><path d="M301 386.853L348.586 349.586L385.853 302L423.12 349.586L470.706 386.853L423.12 424.12L385.853 471.706L348.586 424.12L301 386.853Z" data-figma-gradient-fill="{&#34;type&#34;:&#34;GRADIENT_DIAMOND&#34;,&#34;stops&#34;:[{&#34;color&#34;:{&#34;r&#34;:0.34901961684226990,&#34;g&#34;:0.44313725829124451,&#34;b&#34;:0.78823530673980713,&#34;a&#34;:1.0},&#34;position&#34;:0.0},{&#34;color&#34;:{&#34;r&#34;:0.57647061347961426,&#34;g&#34;:0.59215688705444336,&#34;b&#34;:0.63921570777893066,&#34;a&#34;:1.0},&#34;position&#34;:1.0}],&#34;stopsVar&#34;:[{&#34;color&#34;:{&#34;r&#34;:0.34901961684226990,&#34;g&#34;:0.44313725829124451,&#34;b&#34;:0.78823530673980713,&#34;a&#34;:1.0},&#34;position&#34;:0.0},{&#34;color&#34;:{&#34;r&#34;:0.57647061347961426,&#34;g&#34;:0.59215688705444336,&#34;b&#34;:0.63921570777893066,&#34;a&#34;:1.0},&#34;position&#34;:1.0}],&#34;transform&#34;:{&#34;m00&#34;:0.29436072707176208,&#34;m01&#34;:-169.70562744140625,&#34;m02&#34;:470.55844116210938,&#34;m10&#34;:170.294433593750,&#34;m11&#34;:0.29334568977355957,&#34;m12&#34;:301.55892944335938},&#34;opacity&#34;:1.0,&#34;blendMode&#34;:&#34;NORMAL&#34;,&#34;visible&#34;:true}"/>
<defs>
<clipPath id="paint12_diamond_92_2_clip_path"><path d="M301 386.853L348.586 349.586L385.853 302L423.12 349.586L470.706 386.853L423.12 424.12L385.853 471.706L348.586 424.12L301 386.853Z"/></clipPath><linearGradient id="paint0_linear_92_2" x1="387" y1="27" x2="387" y2="747" gradientUnits="userSpaceOnUse">
<stop stop-color="#2F55E6"/>
<stop offset="1" stop-color="#FADB5E"/>
</linearGradient>
<linearGradient id="paint1_linear_92_2" x1="747" y1="387" x2="27" y2="387" gradientUnits="userSpaceOnUse">
<stop stop-color="#2F55E6"/>
<stop offset="1" stop-color="#FADB5E"/>
</linearGradient>
<linearGradient id="paint2_linear_92_2" x1="387" y1="747" x2="387" y2="27" gradientUnits="userSpaceOnUse">
<stop stop-color="#2F55E6"/>
<stop offset="1" stop-color="#FADB5E"/>
</linearGradient>
<linearGradient id="paint3_linear_92_2" x1="27" y1="387" x2="747" y2="387" gradientUnits="userSpaceOnUse">
<stop stop-color="#2F55E6"/>
<stop offset="1" stop-color="#FADB5E"/>
</linearGradient>
<linearGradient id="paint4_linear_92_2" x1="386.261" y1="32" x2="32" y2="386" gradientUnits="userSpaceOnUse">
<stop stop-color="#FADB5E"/>
<stop offset="1" stop-color="#846B3F"/>
</linearGradient>
<linearGradient id="paint5_linear_92_2" x1="740" y1="386.261" x2="386" y2="32" gradientUnits="userSpaceOnUse">
<stop stop-color="#FADB5E"/>
<stop offset="1" stop-color="#846B3F"/>
</linearGradient>
<linearGradient id="paint6_linear_92_2" x1="385.739" y1="740" x2="740" y2="386" gradientUnits="userSpaceOnUse">
<stop stop-color="#FADB5E"/>
<stop offset="1" stop-color="#846B3F"/>
</linearGradient>
<linearGradient id="paint7_linear_92_2" x1="32" y1="385.739" x2="386" y2="740" gradientUnits="userSpaceOnUse">
<stop stop-color="#FADB5E"/>
<stop offset="1" stop-color="#846B3F"/>
</linearGradient>
<linearGradient id="paint8_linear_92_2" x1="386" y1="260" x2="259" y2="387" gradientUnits="userSpaceOnUse">
<stop stop-color="#FADB5E"/>
<stop offset="1" stop-color="#8E7542"/>
</linearGradient>
<linearGradient id="paint9_linear_92_2" x1="513" y1="387" x2="386" y2="260" gradientUnits="userSpaceOnUse">
<stop stop-color="#FADB5E"/>
<stop offset="1" stop-color="#8E7542"/>
</linearGradient>
<linearGradient id="paint10_linear_92_2" x1="386" y1="514" x2="513" y2="387" gradientUnits="userSpaceOnUse">
<stop stop-color="#FADB5E"/>
<stop offset="1" stop-color="#8E7542"/>
</linearGradient>
<linearGradient id="paint11_linear_92_2" x1="259" y1="387" x2="386" y2="514" gradientUnits="userSpaceOnUse">
<stop stop-color="#FADB5E"/>
<stop offset="1" stop-color="#8E7542"/>
</linearGradient>
<linearGradient id="paint12_diamond_92_2" x1="0" y1="0" x2="500" y2="500" gradientUnits="userSpaceOnUse">
<stop stop-color="#5971C9"/>
<stop offset="1" stop-color="#9397A3"/>
</linearGradient>
</defs>
</svg>
